<svg width="1080" height="1080" viewBox="0 0 1080 1080" fill="none" xmlns="http://www.w3.org/2000/svg">
<path d="M602.919 30.4883L956.688 231.143C996.351 253.639 1020.86 295.72 1020.86 341.319V738.77C1020.86 784.369 996.355 826.446 956.693 848.946L602.928 1049.6C564.169 1071.59 516.704 1071.59 477.945 1049.6L124.176 848.946C84.5135 826.45 60 784.373 60 738.774V341.323C60 295.725 84.505 253.647 124.167 231.148L477.937 30.4883C516.696 8.50389 564.16 8.50389 602.919 30.4883Z" fill="#C6893F"/>
<path d="M521.445 595.185V862.782C514.648 861.135 508.061 858.517 501.813 854.971L283.15 730.968C258.662 717.035 243.505 691.069 243.505 662.865V566.686C243.505 566.686 353.533 642.557 390.096 665.272C390.307 665.356 390.476 665.483 390.645 665.61C394.867 668.185 398.076 670.085 399.933 670.972C400.862 671.563 401.876 672.154 403.1 672.787C411.038 677.052 419.988 679.289 428.981 679.289C433.119 679.289 437.257 678.825 441.268 677.896C447.136 676.545 452.752 674.265 457.861 671.098C461.449 668.861 464.616 666.159 467.656 663.245C470.274 660.797 472.638 658.052 474.918 655.223C478.38 650.832 481.631 646.146 485.051 641.755C490.244 635.126 495.437 628.498 500.588 621.869C505.444 615.705 510.257 609.498 515.07 603.334C517.181 600.632 519.334 597.887 521.445 595.185Z" fill="white"/>
<path d="M903.798 488.704C903.798 494.53 900.843 499.681 896.325 502.721C895.861 503.059 895.354 503.355 894.805 503.65L837.343 536.836V662.865C837.343 691.027 822.228 717.035 797.697 730.968L579.077 854.971C572.828 858.517 566.242 861.135 559.444 862.781V570.486C559.444 558.58 565.609 548.109 574.897 542.071L577.599 540.551L821.088 399.956L821.13 399.913C821.214 399.871 821.256 399.829 821.341 399.829C823.663 398.605 826.323 397.887 829.152 397.887C831.305 397.887 833.332 398.267 835.232 399.027C837.849 400.04 840.171 401.687 841.945 403.755L842.958 405.022C843 405.107 843.085 405.233 843.169 405.318L899.914 477.938C899.956 477.938 899.956 477.98 900.041 478.064C902.363 480.978 903.798 484.693 903.798 488.704Z" fill="white"/>
<path d="M813.15 360.647L565.355 503.692L564.891 503.945C561.175 505.972 557.616 507.783 553.516 508.94C549.269 510.139 544.857 510.743 540.445 510.743C531.633 510.743 523.569 508.345 515.999 503.945L515.534 503.692L267.74 360.647C272.342 356.214 277.493 352.33 283.15 349.121L501.813 225.118C525.752 211.523 555.095 211.523 579.035 225.118L674.243 279.119V219.165H672.132C669.81 219.165 667.91 217.265 667.91 214.943C667.91 212.578 669.81 210.721 672.132 210.721H727.019C729.341 210.721 731.241 212.578 731.241 214.943C731.241 217.265 729.341 219.165 727.019 219.165H724.908V307.829L797.697 349.121C803.397 352.33 808.59 356.214 813.15 360.647Z" fill="white"/>
<path d="M511.988 545.575C510.552 547.391 509.159 549.206 507.723 551.022C504.092 555.708 500.461 560.352 496.83 564.997C491.933 571.245 487.035 577.536 482.138 583.785C476.944 590.456 471.751 597.085 466.516 603.755C461.998 609.582 457.438 615.408 452.878 621.235C449.573 625.457 446.313 629.717 442.902 633.859C438.612 639.065 432.608 642.417 425.676 640.834C422.099 640.019 419.047 637.98 415.88 636.202C412.405 634.252 408.935 632.284 405.473 630.308C395.534 624.63 385.675 618.82 375.741 613.133C369.492 609.502 363.243 605.913 356.995 602.282C350.324 598.44 343.653 594.598 337.024 590.756C330.269 586.871 323.514 582.987 316.8 579.103C310.256 575.345 303.754 571.587 297.252 567.83C291.299 564.368 285.346 560.948 279.393 557.486C274.284 554.572 269.217 551.617 264.109 548.704C260.224 546.466 256.34 544.186 252.456 541.948C250.049 540.597 247.685 539.204 245.32 537.853C244.687 537.473 244.096 537.135 243.505 536.797L186 503.612C185.915 503.612 185.873 503.569 185.873 503.569C180.638 500.698 177.091 495.125 177.091 488.75C177.091 485.372 178.062 482.248 179.751 479.63L181.651 477.224L238.776 404.097C240.592 401.901 242.956 400.17 245.658 399.157C247.558 398.355 249.627 397.933 251.822 397.933C254.482 397.933 257.016 398.566 259.295 399.706L261.238 400.804C261.322 400.846 261.364 400.888 261.407 400.93L492.735 534.475L511.988 545.575Z" fill="white"/>
</svg>
